<svg id="Layer_1" data-name="Layer 1" xmlns="http://www.w3.org/2000/svg" viewBox="0 0 123.43 245.7"><defs><style>.cls-1{fill:#fff;stroke:#000;stroke-miterlimit:10;}</style></defs><path class="cls-1" d="M13.45,87.26c6.21,21.79,20.36,37.5,31.64,54.87C51,151.21,57.38,160,63.46,168.91c5.8,8.57,9,18.14,10.75,28.28a9.64,9.64,0,0,0,2,5,29.92,29.92,0,0,0,1.15-4.66c1.22-13.76-3.52-26-10.51-37.34-12.54-20.44-25.33-40.73-38.06-61.06-4.58-7.33-8.38-14.9-6.86-23.9a30.21,30.21,0,0,1,2.71-9c11-20.91,22.29-41.72,33.47-62.55.23-.42.51-.81,1.37-2.15C60.77,14,64,24.9,70.2,34.35A266.15,266.15,0,0,0,91.88,62.91c9.38,10.72,18,21.85,24.79,34.35,7.93,14.57,8.25,29.22.54,44-2.53,4.84-5.19,9.61-8.35,15.45-1.13-5.6-1.61-10.17-3-14.44-5.94-18.15-16.33-33.83-27.78-48.86C71,84.13,63.33,75.31,56.78,65.69c-4.44-6.51-7.36-14-11-21.12a4,4,0,0,0-2.52-2.22,39.83,39.83,0,0,0,.55,6.45c2.25,9.07,6.93,16.91,12.83,24,14.62,17.67,27.51,36.43,36,57.89,4.94,12.46,8.89,25.19,7.23,38.87a22.23,22.23,0,0,1-2.17,7.61q-17.28,32.69-34.83,65.24A25.28,25.28,0,0,1,61,245a8.6,8.6,0,0,1-1.25-1.87C49.84,209.21,30.85,180,12.36,150.46c-3.18-5.06-6.6-10.07-9-15.52-4.95-11.47-3.42-22.82,2.31-33.7C8.05,96.82,10.55,92.52,13.45,87.26Z" transform="translate(0.12 -0.06)"/></svg>