<svg id="Layer_1" data-name="Layer 1" xmlns="http://www.w3.org/2000/svg" viewBox="0 0 123.35 245.8"><defs><style>.cls-1{stroke:#000;stroke-miterlimit:10;}</style></defs><title>logo-b</title><path class="cls-1" d="M838.4,475.24c6.21,21.79,20.36,37.5,31.64,54.87,5.89,9.08,12.29,17.82,18.37,26.78,5.8,8.57,9,18.14,10.75,28.28a9.62,9.62,0,0,0,2,5,29.9,29.9,0,0,0,1.15-4.66c1.22-13.76-3.52-26-10.51-37.34-12.54-20.44-25.33-40.73-38.06-61.06-4.58-7.33-8.38-14.9-6.86-23.9a30.24,30.24,0,0,1,2.71-9c11-20.91,22.29-41.72,33.47-62.55.23-.42.51-.81,1.37-2.15,1.29,12.49,4.48,23.37,10.72,32.82a266.15,266.15,0,0,0,21.68,28.56c9.38,10.72,18,21.85,24.79,34.35,7.93,14.57,8.25,29.22.54,44-2.53,4.84-5.19,9.61-8.35,15.45-1.13-5.6-1.61-10.17-3-14.44-5.94-18.15-16.33-33.83-27.78-48.86-7.06-9.28-14.75-18.1-21.3-27.72-4.44-6.51-7.36-14.05-11-21.12a4,4,0,0,0-2.52-2.22,39.35,39.35,0,0,0,.55,6.45c2.25,9.07,6.93,16.91,12.83,24,14.62,17.67,27.51,36.43,36,57.89,4.94,12.46,8.89,25.19,7.23,38.87a22.14,22.14,0,0,1-2.17,7.61q-17.28,32.68-34.83,65.24a24.61,24.61,0,0,1-1.91,2.58,8.78,8.78,0,0,1-1.25-1.87c-9.87-33.91-28.86-63.15-47.35-92.66-3.18-5.06-6.6-10.07-9-15.52-4.95-11.47-3.42-22.82,2.31-33.7C833,484.8,835.5,480.5,838.4,475.24Z" transform="translate(-824.95 -387.98)"/></svg>